<svg width="150" height="15" viewBox="0 0 150 15" fill="none" xmlns="http://www.w3.org/2000/svg">
<path d="M145.08 10.1088L136.85 9.95351L136.805 6.04253L140.83 6.1185L145.035 6.19789L140.855 8.24172L145.08 10.1088Z" fill="#DE2C2C"/>
<path d="M93 6.00003H138V10H96C94.3431 10 93 8.65688 93 7.00003V6.00003Z" fill="#DE2C2C"/>
<path d="M2.80003 5.98483L11.0308 6.11116L11.0902 10.022L7.06461 9.96016L2.85947 9.89559L7.03238 7.83704L2.80003 5.98483Z" fill="#DE2C2C"/>
<path d="M10 6H55V7C55 8.65685 53.6569 10 52 10H10V6Z" fill="#DE2C2C"/>
<path d="M50 7C50 5.34315 51.3431 4 53 4H97C98.6569 4 100 5.34315 100 7V8H50V7Z" fill="#DE2C2C"/>
</svg>
